# xmcd
#
# Track frame offsets:
#	150
#	13014
#	26948
#	41327
#	57048
#	71669
#	85563
#	100562
#	114738
#	128871
#	143982
#	157845
#	172367
#	188679
#	204511
#	219610
#	232294
#	248244
#
# Disc length: 3509 seconds
#
# Revision: 1
# Processed by: cddbd v1.5.2PL0 Copyright (c) Steve Scherf et al.
# Submitted via: audiograbber 1.82.02
#
DISCID=fe0db312
DTITLE=Various Artist - Country Radio - July 2018
DYEAR=2018
DGENRE=Country
TTITLE0=Jordan Davis - Take It From Me
TTITLE1=Maddie and Tae - Friends Don't
TTITLE2=Mason Ramsey (Yodeling Boy) - Famous
TTITLE3=Ryan Sims - American Things
TTITLE4=Granger Smith - You're In It
TTITLE5=Ben Cesare Band - Damn Yankee
TTITLE6=Dylan Jakobsen - Lovers Ledge
TTITLE7=Bucky Covington - I Probably Won't
TTITLE8=Dustin Lynch - Good Girl
TTITLE9=Jason Aldean (Ft. Miranda Lambert) - Drowns The Whiskey (PO Clean Edit)
TTITLE10=Joe Nichols - Billy Graham's Bible
TTITLE11=Cort Carpenter - Holy Ground
TTITLE12=Brandon Lay - Yada Yada Yada (PO Clean Edit)
TTITLE13=Clare Dunn - More
TTITLE14=Abby Anderson - Make Him Wait
TTITLE15=Lauren Ashley and The Trainwreckers - Always Wanted To
TTITLE16=Sam Hunt - Downtown's Dead
TTITLE17=Mags - Strong Enough
EXTD=
EXTT0=
EXTT1=
EXTT2=
EXTT3=
EXTT4=
EXTT5=
EXTT6=
EXTT7=
EXTT8=
EXTT9=
EXTT10=
EXTT11=
EXTT12=
EXTT13=
EXTT14=
EXTT15=
EXTT16=
EXTT17=
PLAYORDER=
